<?xml version="1.0" encoding="UTF-8"?>
<svg id="_レイヤー_1" data-name="レイヤー_1" xmlns="http://www.w3.org/2000/svg" version="1.1" viewBox="0 0 589.52 128.75">
  <!-- Generator: Adobe Illustrator 29.7.1, SVG Export Plug-In . SVG Version: 2.1.1 Build 8)  -->
  <defs>
    <style>
      .st0 {
        fill: #200706;
      }
    </style>
  </defs>
  <polygon class="st0" points="413.09 80.88 393.97 61.76 413.09 42.64 411.4 40.94 392.28 60.06 373.15 40.94 371.46 42.64 390.58 61.76 371.46 80.88 373.15 82.58 392.27 63.46 411.4 82.58 413.09 80.88"/>
  <path class="st0" d="M118.42,97.18c-1.23,0-1.93-1.01-1.55-2.24l.06-.18c.38-1.23,1.69-2.24,2.92-2.24h16.51c1.23,0,2.54-1.01,2.92-2.24l.05-.18c.38-1.23-.32-2.23-1.55-2.23h-16.51c-1.23,0-1.93-1.01-1.55-2.24l2.92-9.53c.37-1.22,1.69-2.23,2.92-2.23h30.48c1.23,0,1.93,1.01,1.55,2.23l-.06.19c-.37,1.23-1.69,2.23-2.91,2.23h-16.51c-1.23,0-2.54,1.01-2.92,2.24l-.06.21c-.38,1.23.32,2.23,1.55,2.23h16.51c1.23,0,1.93,1.01,1.55,2.24l-2.91,9.49c-.37,1.23-1.69,2.24-2.92,2.24h-30.48Z"/>
  <path class="st0" d="M225.31,97.18c-1.32,0-2.07-1.03-1.69-2.29l3.65-11.84c.39-1.26,1.79-2.29,3.1-2.29h16.35c1.32,0,2.7-1.03,3.1-2.29l.76-2.5c.39-1.25,1.78-2.29,3.09-2.29h6.94c1.32,0,2.07,1.03,1.69,2.29l-5.84,18.91c-.39,1.26-1.79,2.29-3.1,2.29h-28.06ZM246.95,87.75c.39-1.26-.37-2.28-1.69-2.28h-6.97c-1.32,0-2.71,1.03-3.1,2.28l-.76,2.46c-.39,1.25.37,2.29,1.68,2.29h6.97c1.31,0,2.71-1.03,3.1-2.29l.76-2.46Z"/>
  <path class="st0" d="M269.65,78.4c-1.31,0-2.07-1.03-1.68-2.29l.04-.12c.39-1.25,1.78-2.29,3.09-2.29h6.94c1.31,0,2.07,1.03,1.68,2.29l-.03.12c-.39,1.26-1.78,2.29-3.1,2.29h-6.94ZM263.85,97.18c-1.32,0-2.07-1.03-1.69-2.29l3.66-11.84c.38-1.26,1.78-2.29,3.09-2.29h6.94c1.31,0,2.07,1.02,1.68,2.29l-3.65,11.84c-.39,1.26-1.78,2.29-3.1,2.29h-6.94Z"/>
  <path class="st0" d="M281.56,97.18c-1.31,0-2.07-1.03-1.69-2.29l3.67-11.87c.38-1.26,1.78-2.29,3.09-2.29h28.07c1.32,0,2.07,1.03,1.68,2.29l-3.66,11.87c-.38,1.26-1.78,2.29-3.09,2.29h-28.07ZM305.55,87.74c.39-1.25-.37-2.28-1.68-2.28h-6.97c-1.32,0-2.71,1.03-3.1,2.28l-.76,2.47c-.39,1.25.37,2.28,1.68,2.28h6.97c1.32,0,2.71-1.03,3.1-2.28l.76-2.47Z"/>
  <path class="st0" d="M177.27,85.43c-1.31,0-2.71,1.03-3.1,2.28l-1.13,3.67c-.39,1.26.37,2.28,1.69,2.28h2.28c1.31,0,2.14.79,1.85,1.76-.31.97-1.63,1.76-2.94,1.76h-14c-1.31,0-2.07-1.03-1.69-2.28l2.22-7.19c.38-1.25-.09-2.28-1.05-2.28s-1.44-1.03-1.06-2.28l.04-.11c.39-1.26,1.5-2.29,2.46-2.29s2.08-1.03,2.46-2.29l.76-2.46c.39-1.26,1.79-2.29,3.1-2.29h6.94c1.31,0,2.07,1.03,1.68,2.29l-.76,2.46c-.39,1.25.37,2.29,1.69,2.29h3.45c1.31,0,2.07,1.02,1.69,2.29l-.04.11c-.38,1.26-1.77,2.28-3.09,2.28h-3.45Z"/>
  <path class="st0" d="M186.56,97.18c-1.31,0-2.07-1.03-1.69-2.29l3.67-11.87c.39-1.26,1.78-2.29,3.1-2.29h6.94c1.31,0,2.07,1.03,1.69,2.29l-2.22,7.18c-.4,1.25.36,2.28,1.68,2.28h6.98c1.32,0,2.7-1.03,3.1-2.28l2.21-7.18c.39-1.26,1.79-2.29,3.1-2.29h4.59c1.32,0,2.07,1.03,1.69,2.29l-3.67,11.87c-.39,1.26-1.78,2.29-3.1,2.29h-28.06Z"/>
  <path class="st0" d="M118.33,41.67c-1.15,0-1.8-.9-1.45-1.99l1.96-6.08c.35-1.09,1.58-2,2.74-2h9.43c1.15,0,2.38-.9,2.73-1.99l.94-3.17c.36-1.1,1.52-1.77,2.67-1.77h3.37c1.15,0,1.8.9,1.45,1.99l-4.11,13.02c-.35,1.1-1.58,1.99-2.73,1.99h-16.99ZM131.53,36.47c.35-1.1-.31-1.99-1.46-1.99h-3.38c-1.15,0-2.38.9-2.74,1.99l-.11.33c-.35,1.1.3,1.99,1.45,1.99h3.38c1.15,0,2.38-.89,2.73-1.99l.11-.33Z"/>
  <path class="st0" d="M147.04,30.14c-1.15,0-1.89-.65-1.63-1.44.26-.79,1.41-1.44,2.56-1.44h3.37c1.15,0,1.89.65,1.63,1.44-.26.79-1.41,1.44-2.56,1.44h-3.37ZM143.34,41.67c-1.15,0-1.81-.9-1.45-1.99l1.95-6.08c.35-1.09,1.58-1.99,2.73-1.99h3.37c1.15,0,1.81.9,1.45,1.99l-1.95,6.08c-.35,1.1-1.58,1.99-2.73,1.99h-3.36Z"/>
  <path class="st0" d="M153.36,45.98c-1.15,0-1.94-.48-1.74-1.08.19-.59,1.28-1.08,2.44-1.08h9.43c1.15,0,2.25-.49,2.44-1.08.19-.59-.6-1.08-1.75-1.08h-9.43c-1.15,0-1.81-.9-1.45-1.99l1.96-6.1c.35-1.1,1.58-1.99,2.73-1.99h16.98c1.15,0,1.81.9,1.45,1.99l-3.35,10.42c-.36,1.1-1.59,1.99-2.73,1.99h-16.99ZM167.94,36.47c.35-1.1-.31-1.99-1.46-1.99h-3.38c-1.15,0-2.38.9-2.73,1.99l-.1.33c-.35,1.1.3,1.99,1.45,1.99h3.39c1.16,0,2.38-.89,2.73-1.99l.11-.33Z"/>
  <path class="st0" d="M183.47,30.14c-1.15,0-1.89-.65-1.63-1.44.25-.79,1.41-1.44,2.56-1.44h3.37c1.15,0,1.88.65,1.63,1.44-.26.79-1.4,1.44-2.56,1.44h-3.37ZM179.76,41.67c-1.15,0-1.8-.9-1.45-1.99l1.95-6.08c.35-1.09,1.58-1.99,2.73-1.99h3.37c1.15,0,1.8.9,1.45,1.99l-1.95,6.08c-.36,1.1-1.59,1.99-2.74,1.99h-3.37Z"/>
  <path class="st0" d="M203.31,34.46c-1.15,0-2.38.9-2.73,1.99l-.34,1.07c-.35,1.1.3,1.99,1.45,1.99h.37c1.15,0,1.94.49,1.75,1.08-.19.59-1.29,1.08-2.44,1.08h-7.92c-1.16,0-1.81-.9-1.45-1.99l1.04-3.23c.35-1.09.13-1.99-.49-1.99s-.93-.65-.67-1.44c.25-.79.97-1.43,1.59-1.43s1.42-.9,1.77-2l.11-.33c.35-1.09,1.59-1.99,2.74-1.99h3.37c1.15,0,1.8.9,1.45,1.99l-.11.33c-.35,1.09.3,2,1.46,2h1.12c1.15,0,1.89.64,1.63,1.43-.25.79-1.4,1.44-2.56,1.44h-1.12Z"/>
  <path class="st0" d="M229.86,39.68c-.35,1.1-1.58,1.99-2.74,1.99h-16.98c-1.15,0-1.81-.89-1.45-1.99l.8-2.49c.35-1.1,1.58-1.99,2.74-1.99h9.43c1.15,0,2.2-.32,2.33-.72.13-.39-.71-.72-1.86-.72h-9.43c-1.15,0-1.93-.49-1.74-1.09.2-.6,1.29-1.09,2.44-1.09h16.98c1.16,0,1.81.9,1.45,1.99l-1.96,6.1ZM222.59,38.79c.13-.4-.71-.72-1.86-.72h-3.39c-1.16,0-2.2.32-2.33.72-.13.4.71.72,1.86.72h3.39c1.15,0,2.19-.32,2.32-.72"/>
  <path class="st0" d="M235.15,41.67c-1.15,0-1.81-.9-1.46-1.99l3.58-11.14c.35-1.1,1.58-1.99,2.73-1.99h3.37c1.15,0,1.81.89,1.45,1.99l-3.58,11.14c-.35,1.1-1.58,1.99-2.74,1.99h-3.36Z"/>
  <path class="st0" d="M133.45,66.35c-1.15,0-1.8-.89-1.45-1.99l1.03-3.21c.35-1.1-.3-2-1.45-2h-3.39c-1.15,0-2.38.9-2.74,2l-1.03,3.21c-.35,1.1-1.58,1.99-2.73,1.99h-3.37c-1.15,0-1.8-.89-1.45-1.99l3.92-13.02c.36-1.1,1.58-1.99,2.73-1.99h3.37c1.15,0,1.8.9,1.45,1.99l-.67,2.93c-.36,1.09.29,1.99,1.45,2h9.42c1.15.01,1.8.91,1.45,2.01l-1.95,6.09c-.36,1.1-1.59,1.99-2.74,1.99h-1.86Z"/>
  <path class="st0" d="M143.34,66.35c-1.15,0-1.81-.9-1.45-1.99l1.96-6.11c.35-1.1,1.58-1.99,2.73-1.99h16.98c1.16,0,1.81.89,1.46,1.99l-1.96,6.11c-.35,1.1-1.58,1.99-2.73,1.99h-16.98ZM158.04,61.15c.35-1.1-.3-1.99-1.45-1.99h-3.38c-1.15,0-2.39.9-2.74,1.99l-.11.33c-.35,1.1.3,2,1.45,2h3.39c1.15,0,2.38-.9,2.73-2l.1-.33Z"/>
  <path class="st0" d="M168.35,66.35c-1.15,0-1.8-.89-1.45-1.99l3.58-11.14c.35-1.1,1.58-1.99,2.74-1.99h3.37c1.15,0,1.81.9,1.45,1.99l-3.58,11.14c-.36,1.1-1.59,1.99-2.73,1.99h-3.37Z"/>
  <path class="st0" d="M179.75,66.35c-1.15,0-1.8-.89-1.45-1.99l3.58-11.14c.35-1.1,1.58-1.99,2.73-1.99h3.37c1.15,0,1.8.9,1.45,1.99l-3.58,11.14c-.35,1.1-1.58,1.99-2.74,1.99h-3.36Z"/>
  <path class="st0" d="M189.78,70.67c-1.15,0-1.94-.48-1.75-1.08.19-.59,1.29-1.08,2.44-1.08h9.43c1.15,0,2.25-.49,2.44-1.08.19-.59-.6-1.08-1.74-1.08h-9.43c-1.16,0-1.81-.9-1.45-1.99l1.96-6.11c.35-1.1,1.58-1.99,2.74-1.99h1.86c1.15,0,1.81.9,1.45,1.99l-1.04,3.22c-.35,1.1.3,2,1.45,2h3.39c1.15,0,2.38-.9,2.73-2l1.04-3.22c.35-1.1,1.58-1.99,2.74-1.99h3.37c1.15,0,1.8.9,1.45,1.99l-3.34,10.42c-.35,1.1-1.58,1.99-2.74,1.99h-16.98Z"/>
  <path class="st0" d="M238.43,64.63c-.66.95-2.14,1.72-3.29,1.72h-3.37c-1.15,0-2.15-.94-2.21-2.09l-.15-2.87c-.06-1.15-.65-1.32-1.31-.37l-2.52,3.62c-.65.95-2.13,1.72-3.29,1.72h-3.38c-1.15,0-2.15-.94-2.21-2.09l-.31-5.91c-.06-1.15.84-2.09,1.98-2.09h3.37c1.15,0,2.14.94,2.2,2.09l.1,1.88c.06,1.15.65,1.31,1.31.37l1.84-2.63c.66-.94,2.14-1.72,3.29-1.72h4.12c1.15,0,2.14.94,2.2,2.09l.1,1.88c.06,1.15.64,1.31,1.3.37l1.82-2.63c.66-.94,1.87-1.72,2.71-1.72s.97.77.31,1.72l-4.62,6.65Z"/>
  <path class="st0" d="M245.9,66.35c-1.15,0-1.81-.9-1.45-1.99l1.96-6.11c.35-1.1,1.58-1.99,2.73-1.99h16.98c1.16,0,1.81.89,1.45,1.99l-1.96,6.11c-.36,1.1-1.58,1.99-2.73,1.99h-16.99ZM260.6,61.15c.35-1.1-.3-1.99-1.45-1.99h-3.39c-1.15,0-2.38.9-2.74,1.99l-.1.33c-.35,1.1.3,2,1.45,2h3.39c1.15,0,2.38-.9,2.73-2l.11-.33Z"/>
  <path class="st0" d="M270.39,66.35c-1.15,0-1.81-.9-1.46-1.99l1.96-6.11c.36-1.1,1.59-1.99,2.73-1.99h16.99c1.15,0,1.8.89,1.46,1.99l-1.96,6.11c-.35,1.1-1.58,1.99-2.74,1.99h-16.98ZM285.09,61.15c.35-1.1-.3-1.99-1.45-1.99h-3.38c-1.16,0-2.38.9-2.73,1.99l-.11.33c-.35,1.1.3,2,1.45,2h3.38c1.16,0,2.38-.9,2.73-2l.11-.33Z"/>
  <path class="st0" d="M294.87,66.35c-1.15,0-1.81-.9-1.45-1.99l1.96-6.08c.35-1.09,1.58-2,2.74-2h9.43c1.16,0,2.39-.9,2.74-1.99l.11-.35c.36-1.1,1.59-1.99,2.73-1.99h3.37c1.15,0,1.8.9,1.45,1.99l-3.34,10.42c-.35,1.1-1.58,1.99-2.74,1.99h-16.99ZM308.06,61.15c.35-1.1-.3-1.99-1.45-1.99h-3.39c-1.15,0-2.38.9-2.73,1.99l-.11.33c-.35,1.1.3,2,1.45,2h3.39c1.15,0,2.38-.9,2.73-2l.11-.33Z"/>
  <path class="st0" d="M103.6,67.57l-1.47,29.71c-.07,1.51-.77,2.56-2.11,3.12-1.36.56-2.94.47-4.71-.27l-19.2-7.97c-2.42-1-3.62-2.64-3.66-4.83,0-.5.08-.98.27-1.47l7.72-19.87c.11-.24.15-.53.11-.85-.18-1.17-1.12-1.97-2.82-2.4l-12.28-3.32c-.76-.19-1.57-.18-2.41.03-.85.22-1.49.56-1.95,1.03l-14.17,14.27c-.72.79-1.64,1.34-2.77,1.65-1.14.31-2.13.29-2.98-.07l-9.5-3.94c-1.24-.51-1.39-1.39-.51-2.61.2-.28.47-.56.81-.83l26.47-21.02-25.1-5.35c-.65-.13-.71-.4-.18-.79.12-.08.28-.18.47-.27l10.82-5.1c.33-.16.75-.28,1.23-.36.49-.08.91-.1,1.27-.05l10.05,1.47c.42.05.88.04,1.39-.05.51-.09.91-.22,1.19-.41l17.62-9.71c.2-.13.51-.23.92-.3.42-.07.82-.09,1.19-.06l1.09.13c.72.06,1.06.22,1.02.47,0,.06-.05.11-.12.16l-15.36,12.01c-.27.21-.67.37-1.22.48-.55.1-1.07.12-1.57.04l-11.67-1.81c-.41-.06-.87-.04-1.39.05-.53.09-.95.23-1.29.41l-4.43,2.53c-.17.09-.32.19-.41.29-.44.41-.3.68.43.82l21.6,4.41,4.3.8c1.09.2,1.54.54,1.41,1.15-.03.14-.15.25-.25.38l-.45.48-4.47,4.79c-.17.18-.27.35-.32.53-.22.77.3,1.31,1.55,1.6l31.69,7.42c1.99.46,3.32,1.34,3.96,2.65.15.3.2.58.16.84"/>
  <path class="st0" d="M88.22,24.28c.1.85-2.21,1.53-5.16,1.53s-5.43-.68-5.54-1.53c-.1-.85,2.21-1.53,5.16-1.53s5.43.68,5.53,1.53"/>
  <g>
    <rect class="st0" x="495.84" y="17.39" width="20.77" height="83.09"/>
    <path class="st0" d="M569.16,49.16s.03-2.18.01-4.89c0-1.67,0-3.14-.03-4.56-.32-14.02-10.39-23.47-23.19-23.54-.9,0-1.5-.01-2.44,0-12.87.19-22.9,10.06-23.13,23-.1,5.89-.09,9.74-.09,9.74v23.47s-.04,4.89.16,9.8c.45,11.37,8.59,19.48,19.39,19.53.24,0,.78,0,1.02,0,5.46-.08,9.67-2.43,12.43-6.09l2.44,4.87h13.44v-15.88h0v-3.67s0-11.7,0-11.7h0v-16.41h-24.44v17.11l3.67-.11v1.35s0,5.9-.06,7.23c-.12,2.29-1.62,3.75-3.64,3.75h0c-2.03,0-3.44-1.68-3.56-3.75-.08-1.32-.06-7.26-.06-7.26v-24.42s0-5.43.04-7.27c.05-2.02,1.6-3.73,3.62-3.73,2.02,0,3.6,1.55,3.62,3.73.02,1.82.04,7.23.04,7.23v2.48h20.77Z"/>
    <polygon class="st0" points="486.07 17.39 466.52 17.39 466.52 100.48 483.63 100.48 486.03 100.48 492.18 100.48 492.18 74.21 486.04 74.42 486.07 17.39"/>
  </g>
</svg>