<svg width="21" height="5" viewBox="0 0 21 5" fill="none" xmlns="http://www.w3.org/2000/svg">
<path d="M0.708 0.887999C0.996 0.904 1.364 0.928 1.812 0.96C2.26 0.976 2.724 0.991999 3.204 1.008C3.7 1.024 4.156 1.032 4.572 1.032C4.972 1.032 5.468 1.032 6.06 1.032C6.652 1.032 7.292 1.032 7.98 1.032C8.684 1.032 9.404 1.032 10.14 1.032C10.892 1.032 11.636 1.032 12.372 1.032C13.108 1.032 13.804 1.032 14.46 1.032C15.116 1.032 15.7 1.032 16.212 1.032C16.74 1.032 17.156 1.032 17.46 1.032C18.02 1.032 18.548 1.016 19.044 0.983999C19.54 0.936 19.948 0.904 20.268 0.887999V4.656C19.996 4.64 19.588 4.616 19.044 4.584C18.5 4.552 17.972 4.536 17.46 4.536C17.156 4.536 16.74 4.536 16.212 4.536C15.684 4.536 15.092 4.536 14.436 4.536C13.78 4.536 13.084 4.536 12.348 4.536C11.628 4.536 10.892 4.536 10.14 4.536C9.388 4.536 8.66 4.536 7.956 4.536C7.268 4.536 6.628 4.536 6.036 4.536C5.46 4.536 4.972 4.536 4.572 4.536C3.884 4.536 3.18 4.552 2.46 4.584C1.74 4.6 1.156 4.624 0.708 4.656V0.887999Z" fill="#FF8763"/>
</svg>
