<svg width="19" height="20" viewBox="0 0 19 20" fill="none" xmlns="http://www.w3.org/2000/svg">
<path d="M10.6875 15.8827C10.6485 15.8827 10.6093 15.8752 10.5732 15.8603C10.5374 15.8454 10.505 15.8232 10.4775 15.7958C10.45 15.7682 10.428 15.7352 10.4131 15.6991C10.3982 15.6632 10.3906 15.6248 10.3906 15.5859C10.3906 15.5469 10.3982 15.5076 10.4131 15.4716C10.428 15.4357 10.4501 15.4034 10.4775 15.3759L15.3145 10.539H2.96875C2.89011 10.539 2.81444 10.5076 2.75879 10.4521C2.70315 10.3964 2.67192 10.3208 2.67188 10.2421C2.67188 10.1634 2.70311 10.0878 2.75879 10.0322C2.81446 9.9765 2.89003 9.94524 2.96875 9.94524H15.3145L10.4775 5.10832C10.4219 5.05266 10.3907 4.97708 10.3906 4.89836C10.3906 4.81958 10.4218 4.74411 10.4775 4.6884C10.5332 4.63272 10.6087 4.60149 10.6875 4.60149C10.7662 4.60155 10.8418 4.63275 10.8975 4.6884L16.2412 10.0322C16.2686 10.0596 16.2908 10.092 16.3057 10.1279C16.3206 10.1639 16.3281 10.2031 16.3281 10.2421C16.3281 10.281 16.3205 10.3195 16.3057 10.3554C16.2907 10.3914 16.2688 10.4245 16.2412 10.4521L10.8975 15.7958C10.8699 15.8234 10.8368 15.8453 10.8008 15.8603C10.7649 15.8751 10.7264 15.8827 10.6875 15.8827Z" fill="#2D2D2D"/>
<path d="M10.6875 15.8827C10.6485 15.8827 10.6093 15.8752 10.5732 15.8603C10.5374 15.8454 10.505 15.8232 10.4775 15.7958C10.45 15.7682 10.428 15.7352 10.4131 15.6991C10.3982 15.6632 10.3906 15.6248 10.3906 15.5859C10.3906 15.5469 10.3982 15.5076 10.4131 15.4716C10.428 15.4357 10.4501 15.4034 10.4775 15.3759L15.3145 10.539H2.96875C2.89011 10.539 2.81444 10.5076 2.75879 10.4521C2.70315 10.3964 2.67192 10.3208 2.67188 10.2421C2.67188 10.1634 2.70311 10.0878 2.75879 10.0322C2.81446 9.9765 2.89003 9.94524 2.96875 9.94524H15.3145L10.4775 5.10832C10.4219 5.05266 10.3907 4.97708 10.3906 4.89836C10.3906 4.81958 10.4218 4.74411 10.4775 4.6884C10.5332 4.63272 10.6087 4.60149 10.6875 4.60149C10.7662 4.60155 10.8418 4.63275 10.8975 4.6884L16.2412 10.0322C16.2686 10.0596 16.2908 10.092 16.3057 10.1279C16.3206 10.1639 16.3281 10.2031 16.3281 10.2421C16.3281 10.281 16.3205 10.3195 16.3057 10.3554C16.2907 10.3914 16.2688 10.4245 16.2412 10.4521L10.8975 15.7958C10.8699 15.8234 10.8368 15.8453 10.8008 15.8603C10.7649 15.8751 10.7264 15.8827 10.6875 15.8827Z" stroke="#2D2D2D"/>
</svg>
