<svg width="1481" height="1481" viewBox="0 0 1481 1481" fill="none" xmlns="http://www.w3.org/2000/svg">
<path d="M1317.96 803.123L1335.01 804.573L1338.88 803.267L1369.42 805.864C1374.83 806.324 1379.2 805.005 1382.51 801.907C1385.82 798.916 1387.77 794.01 1388.35 787.189C1388.74 782.533 1388.38 777.867 1387.25 773.19C1386.22 768.631 1384.59 764.676 1382.37 761.324L1400.84 753.735C1403.8 758.784 1405.91 764.744 1407.18 771.613C1408.45 778.483 1408.79 785.383 1408.2 792.312C1407.06 805.63 1403.04 815.704 1396.14 822.532C1389.23 829.361 1379.12 832.209 1365.8 831.076L1315.94 826.835L1317.96 803.123ZM1318.92 776.376C1319.5 769.555 1321.14 763.805 1323.83 759.126C1326.62 754.456 1330.13 750.992 1334.36 748.734C1338.59 746.476 1343.19 745.559 1348.17 745.983C1353.37 746.425 1357.81 748.057 1361.5 750.879C1365.18 753.809 1367.86 758.127 1369.56 763.833C1371.36 769.549 1371.89 776.846 1371.13 785.725L1369.16 808.95L1354.38 807.693L1356.12 787.229C1356.62 781.273 1356 777.076 1354.24 774.636C1352.48 772.305 1350.13 771.015 1347.21 770.767C1343.96 770.49 1341.26 771.514 1339.1 773.839C1337.04 776.281 1335.82 779.722 1335.44 784.161C1335.08 788.384 1335.73 792.256 1337.39 795.779C1339.17 799.31 1341.94 802 1345.71 803.847L1333.68 806.75C1328.21 804.431 1324.22 800.71 1321.71 795.589C1319.2 790.468 1318.27 784.064 1318.92 776.376Z" fill="black" fill-opacity="0.12"/>
<path d="M1297.68 899.385C1299.73 891.946 1303.06 885.987 1307.67 881.508C1312.29 877.029 1318.18 874.254 1325.35 873.183C1332.62 872.141 1341.18 872.975 1351.03 875.684C1360.98 878.422 1368.75 882.137 1374.34 886.828C1379.89 891.625 1383.51 897.127 1385.18 903.335C1386.85 909.544 1386.71 916.21 1384.75 923.335C1382.56 931.298 1378.82 937.932 1373.53 943.239C1368.21 948.65 1361.8 952.296 1354.29 954.176C1346.76 956.161 1338.54 955.929 1329.63 953.479C1320.83 951.058 1313.7 947.069 1308.24 941.51C1302.75 936.056 1299.06 929.629 1297.15 922.229C1295.31 914.962 1295.49 907.348 1297.68 899.385ZM1312.69 849.753L1429.3 881.83L1422.56 906.347L1373.37 892.816L1348.81 884.371L1323.53 877.926L1306.25 873.17L1312.69 849.753ZM1318.97 900.675C1317.84 904.761 1317.79 908.635 1318.81 912.297C1319.81 916.064 1321.77 919.366 1324.71 922.203C1327.72 925.174 1331.64 927.322 1336.46 928.648C1341.39 930.002 1345.85 930.16 1349.86 929.12C1353.83 928.185 1357.21 926.353 1359.99 923.624C1362.74 920.999 1364.68 917.644 1365.8 913.558C1366.93 909.472 1366.99 905.545 1366 901.778C1365.01 898.011 1363.04 894.71 1360.1 891.872C1357.16 889.035 1353.23 886.94 1348.31 885.585C1343.49 884.259 1339.04 884.05 1334.96 884.956C1330.98 885.89 1327.6 887.723 1324.82 890.452C1322.04 893.181 1320.09 896.589 1318.97 900.675Z" fill="black" fill-opacity="0.12"/>
<path d="M1260.91 994.859C1265.06 986.484 1270.5 979.902 1277.24 975.113C1283.93 970.421 1291.23 967.67 1299.15 966.861C1307.11 966.198 1314.99 967.795 1322.78 971.652C1330.67 975.557 1336.72 980.855 1340.93 987.545C1345.18 994.38 1347.42 1001.86 1347.65 1009.97C1347.92 1018.23 1345.99 1026.55 1341.84 1034.92C1337.74 1043.2 1332.33 1049.73 1325.59 1054.52C1318.95 1059.36 1311.7 1062.14 1303.83 1062.85C1295.96 1063.56 1288.03 1061.94 1280.04 1057.98C1272.25 1054.13 1266.21 1048.83 1261.9 1042.09C1257.7 1035.4 1255.46 1027.93 1255.18 1019.67C1254.91 1011.41 1256.82 1003.14 1260.91 994.859ZM1279.61 1004.12C1277.73 1007.91 1276.92 1011.76 1277.18 1015.64C1277.44 1019.53 1278.74 1023.15 1281.09 1026.49C1283.53 1029.88 1286.99 1032.69 1291.47 1034.9C1296.05 1037.17 1300.38 1038.22 1304.46 1038.06C1308.54 1037.9 1312.2 1036.74 1315.45 1034.59C1318.7 1032.44 1321.26 1029.46 1323.14 1025.67C1325.02 1021.87 1325.84 1018.03 1325.58 1014.14C1325.32 1010.25 1324.04 1006.59 1321.74 1003.15C1319.4 999.803 1315.94 996.998 1311.36 994.732C1306.88 992.515 1302.55 991.463 1298.37 991.576C1294.24 991.836 1290.55 993.041 1287.3 995.192C1284.06 997.343 1281.49 1000.32 1279.61 1004.12Z" fill="black" fill-opacity="0.12"/>
<path d="M1208.13 1082.15C1212.52 1076.34 1217.58 1071.99 1223.3 1069.1C1228.97 1066.3 1235.04 1065.37 1241.54 1066.33C1248.12 1067.36 1255.01 1070.59 1262.2 1076.02L1301.74 1105.9L1286.41 1126.19L1249.86 1098.57C1244.06 1094.18 1238.85 1092.15 1234.24 1092.48C1229.65 1092.97 1225.65 1095.46 1222.25 1099.97C1219.89 1103.09 1218.44 1106.36 1217.91 1109.77C1217.46 1113.24 1218.1 1116.72 1219.83 1120.21C1221.64 1123.76 1224.67 1127.14 1228.92 1130.35L1263.51 1156.49L1248.18 1176.77L1178.21 1123.9L1192.76 1104.66L1212.01 1119.2L1203.76 1118.49C1200.67 1112.48 1199.61 1106.22 1200.57 1099.73C1201.55 1093.39 1204.07 1087.53 1208.13 1082.15Z" fill="black" fill-opacity="0.12"/>
<path d="M1133.63 1165.69C1141.09 1158.55 1148.7 1154.87 1156.47 1154.66C1164.31 1154.52 1171.84 1158.22 1179.06 1165.75L1232.26 1221.33L1213.89 1238.91L1160.91 1183.57C1158.36 1180.9 1155.66 1179.5 1152.82 1179.36C1150.05 1179.3 1147.45 1180.44 1145.02 1182.77C1142.12 1185.55 1140.4 1188.7 1139.86 1192.22L1122.51 1184C1123.12 1180.87 1124.42 1177.67 1126.41 1174.41C1128.4 1171.3 1130.81 1168.39 1133.63 1165.69ZM1213.74 1182.42L1227.26 1196.55L1183.35 1238.59L1169.82 1224.46L1213.74 1182.42Z" fill="black" fill-opacity="0.12"/>
<path d="M1040.95 1235.58C1047.22 1231.88 1053.55 1229.78 1059.94 1229.28C1066.25 1228.84 1072.22 1230.3 1077.86 1233.66C1083.56 1237.11 1088.7 1242.71 1093.29 1250.48L1118.49 1293.14L1096.6 1306.08L1073.3 1266.64C1069.6 1260.37 1065.55 1256.51 1061.17 1255.07C1056.74 1253.77 1052.09 1254.56 1047.23 1257.43C1043.86 1259.42 1041.28 1261.89 1039.49 1264.84C1037.76 1267.89 1037.02 1271.35 1037.29 1275.23C1037.62 1279.2 1039.14 1283.48 1041.85 1288.06L1063.9 1325.39L1042.01 1338.33L997.404 1262.82L1018.17 1250.55L1030.44 1271.32L1023.09 1267.53C1022.52 1260.79 1023.91 1254.61 1027.27 1248.96C1030.59 1243.47 1035.15 1239.01 1040.95 1235.58Z" fill="black" fill-opacity="0.12"/>
<path d="M946.546 1281.79C953.566 1279.16 960.637 1277.43 967.759 1276.62C974.818 1275.94 980.706 1276.17 985.425 1277.3L983.903 1297.37C979.26 1296.44 974.109 1296.17 968.45 1296.55C962.726 1297.08 957.372 1298.27 952.387 1300.14C946.893 1302.2 943.275 1304.32 941.533 1306.48C939.689 1308.68 939.206 1310.95 940.084 1313.29C940.81 1315.22 942.26 1316.3 944.435 1316.53C946.546 1316.9 949.172 1316.79 952.314 1316.19C955.455 1315.59 958.902 1314.88 962.653 1314.05C966.304 1313.26 970.062 1312.6 973.928 1312.08C977.833 1311.66 981.584 1311.76 985.184 1312.38C988.783 1313.01 992.052 1314.45 994.991 1316.71C997.827 1319.01 1000.12 1322.51 1001.88 1327.19C1003.83 1332.37 1004.07 1337.51 1002.61 1342.58C1001.04 1347.69 997.834 1352.44 992.976 1356.82C988.157 1361.29 981.779 1365.02 973.844 1368C968.248 1370.1 962.321 1371.63 956.064 1372.58C949.807 1373.54 944.306 1373.57 939.562 1372.68L941.141 1352.76C945.987 1353.61 950.598 1353.68 954.973 1352.97C959.284 1352.4 963.322 1351.4 967.087 1349.99C972.377 1348.01 975.976 1345.84 977.883 1343.5C979.791 1341.16 980.324 1338.87 979.484 1336.63C978.721 1334.6 977.284 1333.4 975.172 1333.03C972.959 1332.7 970.263 1332.78 967.083 1333.28C963.904 1333.77 960.489 1334.42 956.839 1335.21C953.125 1336.14 949.316 1336.81 945.412 1337.23C941.507 1337.65 937.806 1337.53 934.308 1336.87C930.747 1336.35 927.497 1334.96 924.559 1332.7C921.659 1330.53 919.331 1327.11 917.575 1322.43C915.666 1317.35 915.493 1312.25 917.056 1307.13C918.658 1302.12 921.938 1297.41 926.898 1292.99C931.755 1288.62 938.305 1284.88 946.546 1281.79Z" fill="black" fill-opacity="0.12"/>
<path d="M753.145 1320.99L753.937 1338.09L755.739 1341.76L757.157 1372.37C757.409 1377.79 759.288 1381.95 762.794 1384.83C766.191 1387.72 771.309 1389.01 778.148 1388.69C782.815 1388.47 787.393 1387.5 791.882 1385.77C796.267 1384.15 799.976 1382.02 803.008 1379.38L812.949 1396.71C808.329 1400.29 802.696 1403.16 796.052 1405.32C789.407 1407.48 782.611 1408.72 775.664 1409.04C762.312 1409.66 751.8 1406.99 744.127 1401.04C736.453 1395.08 732.307 1385.43 731.689 1372.08L729.372 1322.09L753.145 1320.99ZM779.788 1318.45C786.626 1318.13 792.541 1319 797.531 1321.05C802.527 1323.22 806.42 1326.24 809.211 1330.14C812.003 1334.04 813.514 1338.48 813.746 1343.47C813.987 1348.68 812.95 1353.3 810.634 1357.32C808.21 1361.35 804.28 1364.58 798.845 1367.01C793.415 1369.54 786.249 1371.02 777.348 1371.43L754.064 1372.51L753.377 1357.69L773.893 1356.74C779.863 1356.47 783.943 1355.3 786.132 1353.24C788.212 1351.18 789.185 1348.69 789.049 1345.76C788.898 1342.5 787.529 1339.96 784.942 1338.12C782.251 1336.39 778.68 1335.63 774.23 1335.84C769.996 1336.04 766.242 1337.19 762.968 1339.3C759.698 1341.52 757.394 1344.62 756.056 1348.59L751.605 1337.05C753.188 1331.32 756.355 1326.88 761.104 1323.72C765.853 1320.56 772.081 1318.81 779.788 1318.45Z" fill="black" fill-opacity="0.12"/>
<path d="M652.696 1313.19C660.337 1314.25 666.677 1316.78 671.715 1320.78C676.753 1324.77 680.267 1330.26 682.257 1337.23C684.231 1344.3 684.513 1352.9 683.101 1363.02C681.674 1373.24 678.995 1381.43 675.065 1387.57C671.028 1393.7 666.04 1398 660.1 1400.46C654.161 1402.92 647.532 1403.64 640.213 1402.62C632.034 1401.48 624.971 1398.63 619.024 1394.07C612.97 1389.49 608.525 1383.61 605.69 1376.41C602.746 1369.19 601.913 1361.01 603.19 1351.86C604.452 1342.82 607.486 1335.24 612.291 1329.11C616.99 1322.96 622.884 1318.46 629.975 1315.61C636.943 1312.85 644.517 1312.04 652.696 1313.19ZM703.852 1321.64L687.134 1441.43L661.95 1437.91L669.002 1387.38L674.199 1361.94L677.32 1336.04L679.798 1318.29L703.852 1321.64ZM654.171 1334.46C649.973 1333.87 646.125 1334.32 642.626 1335.81C639.019 1337.28 636 1339.66 633.567 1342.94C631.011 1346.31 629.388 1350.47 628.697 1355.42C627.991 1360.48 628.412 1364.93 629.962 1368.77C631.403 1372.59 633.657 1375.7 636.723 1378.11C639.681 1380.49 643.259 1381.98 647.456 1382.57C651.654 1383.15 655.556 1382.71 659.162 1381.24C662.769 1379.77 665.789 1377.39 668.222 1374.11C670.655 1370.83 672.224 1366.66 672.93 1361.6C673.621 1356.65 673.253 1352.21 671.827 1348.28C670.385 1344.46 668.132 1341.34 665.066 1338.94C662 1336.54 658.368 1335.04 654.171 1334.46Z" fill="black" fill-opacity="0.12"/>
<path d="M553.658 1289.11C562.503 1292.13 569.738 1296.67 575.365 1302.72C580.889 1308.74 584.569 1315.62 586.403 1323.37C588.1 1331.18 587.545 1339.2 584.737 1347.43C581.894 1355.76 577.43 1362.45 571.346 1367.49C565.124 1372.6 558.005 1375.8 549.989 1377.08C541.835 1378.43 533.336 1377.59 524.491 1374.58C515.75 1371.59 508.565 1367.07 502.939 1361.02C497.277 1355.07 493.58 1348.24 491.848 1340.53C490.116 1332.82 490.689 1324.75 493.567 1316.31C496.375 1308.09 500.839 1301.4 506.958 1296.26C513.042 1291.21 520.161 1288.02 528.315 1286.67C536.469 1285.31 544.917 1286.13 553.658 1289.11ZM546.919 1308.86C542.909 1307.49 538.993 1307.19 535.173 1307.95C531.353 1308.71 527.939 1310.48 524.929 1313.24C521.885 1316.1 519.555 1319.9 517.941 1324.63C516.291 1329.47 515.813 1333.9 516.506 1337.92C517.198 1341.95 518.823 1345.43 521.379 1348.37C523.936 1351.31 527.219 1353.46 531.23 1354.83C535.241 1356.2 539.156 1356.5 542.976 1355.74C546.796 1354.98 550.262 1353.23 553.375 1350.5C556.384 1347.74 558.713 1343.94 560.363 1339.11C561.978 1334.38 562.456 1329.95 561.798 1325.82C561.002 1321.76 559.326 1318.26 556.77 1315.32C554.214 1312.38 550.93 1310.23 546.919 1308.86Z" fill="black" fill-opacity="0.12"/>
<path d="M460.075 1247.88C466.397 1251.49 471.359 1255.95 474.959 1261.26C478.465 1266.52 480.158 1272.43 480.039 1278.99C479.865 1285.65 477.543 1292.89 473.07 1300.73L448.498 1343.76L426.417 1331.15L449.13 1291.37C452.74 1285.05 454.086 1279.62 453.168 1275.1C452.102 1270.61 449.116 1266.96 444.209 1264.16C440.811 1262.22 437.388 1261.2 433.937 1261.11C430.433 1261.11 427.063 1262.19 423.829 1264.35C420.541 1266.6 417.577 1270.04 414.937 1274.66L393.436 1312.31L371.355 1299.7L414.841 1223.55L435.79 1235.51L423.827 1256.46L423.481 1248.2C429.046 1244.37 435.111 1242.51 441.675 1242.63C448.091 1242.79 454.224 1244.54 460.075 1247.88Z" fill="black" fill-opacity="0.12"/>
<path d="M368.215 1185.06C376.266 1191.52 380.905 1198.59 382.132 1206.26C383.291 1214.02 380.605 1221.97 374.076 1230.1L325.92 1290.11L306.089 1274.19L354.041 1214.44C356.353 1211.56 357.393 1208.7 357.16 1205.87C356.859 1203.12 355.394 1200.69 352.767 1198.58C349.632 1196.06 346.282 1194.77 342.718 1194.7L348.602 1176.43C351.792 1176.62 355.134 1177.49 358.627 1179.04C361.968 1180.61 365.164 1182.61 368.215 1185.06ZM362.08 1266.67L349.837 1281.92L302.42 1243.87L314.663 1228.61L362.08 1266.67Z" fill="black" fill-opacity="0.12"/>
<path d="M287.069 1102.17C291.543 1107.92 294.435 1113.93 295.745 1120.21C296.988 1126.4 296.306 1132.51 293.699 1138.54C291.006 1144.63 286.101 1150.45 278.986 1155.99L239.893 1186.44L224.268 1166.38L260.403 1138.23C266.147 1133.76 269.456 1129.25 270.33 1124.71C271.051 1120.16 269.675 1115.65 266.203 1111.19C263.799 1108.11 261.019 1105.86 257.864 1104.47C254.622 1103.13 251.096 1102.85 247.284 1103.61C243.387 1104.45 239.337 1106.5 235.137 1109.77L200.93 1136.41L185.305 1116.35L254.49 1062.47L269.313 1081.5L250.281 1096.32L253.106 1088.54C259.71 1087.12 266.025 1087.71 272.05 1090.32C277.923 1092.9 282.929 1096.86 287.069 1102.17Z" fill="black" fill-opacity="0.12"/>
<path d="M229.125 1014.67C232.649 1021.29 235.278 1028.07 237.013 1035.03C238.6 1041.94 239.139 1047.81 238.631 1052.64L218.534 1053.74C218.85 1049.01 218.451 1043.87 217.335 1038.31C216.073 1032.7 214.191 1027.55 211.688 1022.85C208.93 1017.67 206.366 1014.35 203.995 1012.91C201.574 1011.37 199.26 1011.18 197.054 1012.36C195.231 1013.33 194.348 1014.91 194.404 1017.09C194.314 1019.23 194.769 1021.82 195.771 1024.86C196.772 1027.9 197.927 1031.22 199.235 1034.83C200.492 1038.35 201.631 1041.99 202.651 1045.76C203.576 1049.57 203.963 1053.31 203.814 1056.96C203.664 1060.61 202.659 1064.04 200.796 1067.24C198.883 1070.36 195.72 1073.09 191.308 1075.44C186.417 1078.04 181.36 1078.95 176.138 1078.16C170.865 1077.27 165.743 1074.71 160.773 1070.46C155.707 1066.26 151.182 1060.42 147.198 1052.94C144.389 1047.67 142.104 1041.99 140.343 1035.91C138.583 1029.83 137.836 1024.38 138.101 1019.56L158.054 1018.54C157.84 1023.45 158.371 1028.03 159.647 1032.28C160.776 1036.48 162.285 1040.35 164.175 1043.9C166.831 1048.89 169.443 1052.18 172.012 1053.76C174.58 1055.35 176.92 1055.58 179.03 1054.46C180.948 1053.44 181.953 1051.85 182.043 1049.71C182.083 1047.48 181.65 1044.81 180.745 1041.73C179.839 1038.64 178.757 1035.34 177.5 1031.82C176.096 1028.26 174.932 1024.57 174.008 1020.75C173.083 1016.94 172.721 1013.25 172.922 1009.7C172.975 1006.1 173.933 1002.69 175.795 999.486C177.562 996.33 180.651 993.577 185.063 991.227C189.859 988.673 194.893 987.839 200.166 988.725C205.343 989.661 210.442 992.301 215.464 996.645C220.434 1000.89 224.988 1006.9 229.125 1014.67Z" fill="black" fill-opacity="0.12"/>
<path d="M165.281 829.056L148.433 832.07L145.03 834.335L114.865 839.73C109.516 840.687 105.641 843.091 103.239 846.943C100.818 850.688 100.21 855.93 101.415 862.669C102.238 867.269 103.8 871.681 106.101 875.906C108.276 880.043 110.872 883.442 113.887 886.104L98.0046 898.218C93.8467 894.104 90.2653 888.894 87.2606 882.587C84.2558 876.281 82.1411 869.704 80.9166 862.858C78.5631 849.701 79.838 838.931 84.741 830.547C89.6442 822.163 98.6743 816.795 111.831 814.441L161.091 805.63L165.281 829.056ZM171.271 855.141C172.477 861.88 172.387 867.857 171.002 873.073C169.509 878.307 167.014 882.562 163.515 885.837C160.017 889.113 155.807 891.19 150.886 892.071C145.752 892.989 141.039 892.562 136.748 890.791C132.438 888.912 128.725 885.437 125.61 880.364C122.388 875.311 119.993 868.398 118.424 859.627L114.319 836.682L128.921 834.07L132.537 854.287C133.589 860.17 135.279 864.063 137.606 865.965C139.914 867.76 142.513 868.399 145.401 867.883C148.61 867.308 150.957 865.619 152.442 862.814C153.802 859.922 154.089 856.283 153.305 851.897C152.558 847.725 150.926 844.154 148.407 841.182C145.782 838.229 142.41 836.349 138.291 835.54L149.155 829.623C155.042 830.446 159.861 833.007 163.61 837.304C167.359 841.601 169.913 847.546 171.271 855.141Z" fill="black" fill-opacity="0.12"/>
<path d="M160.029 727.244C159.94 734.959 158.233 741.568 154.91 747.072C151.586 752.576 146.592 756.756 139.93 759.613C133.159 762.469 124.667 763.838 114.453 763.72C104.13 763.6 95.6726 761.981 89.0796 758.861C82.4878 755.633 77.5942 751.23 74.3986 745.65C71.203 740.071 69.6479 733.587 69.7335 726.198C69.8292 717.94 71.7619 710.573 75.5318 704.096C79.303 697.51 84.5791 692.355 91.36 688.63C98.1422 684.796 106.151 682.933 115.387 683.04C124.515 683.146 132.424 685.193 139.116 689.183C145.809 693.064 151.018 698.341 154.745 705.013C158.363 711.576 160.125 718.986 160.029 727.244ZM158.125 779.059L37.1874 777.659L37.4819 752.232L88.4975 752.823L114.394 754.753L140.478 754.566L158.407 754.774L158.125 779.059ZM139.116 731.403C139.165 727.165 138.23 723.405 136.312 720.123C134.395 716.732 131.655 714.037 128.092 712.04C124.422 709.933 120.087 708.85 115.089 708.792C109.982 708.733 105.624 709.715 102.014 711.738C98.4057 713.652 95.6041 716.282 93.6092 719.628C91.6156 722.865 90.5942 726.603 90.5452 730.84C90.4961 735.078 91.43 738.893 93.3468 742.284C95.2637 745.675 98.0037 748.369 101.567 750.366C105.13 752.364 109.465 753.392 114.572 753.451C119.57 753.509 123.928 752.581 127.645 750.668C131.253 748.754 134.055 746.124 136.05 742.778C138.045 739.432 139.067 735.641 139.116 731.403Z" fill="black" fill-opacity="0.12"/>
<path d="M171.069 625.912C169.213 635.072 165.645 642.831 160.365 649.189C155.106 655.441 148.754 659.975 141.31 662.791C133.78 665.478 125.755 665.959 117.235 664.232C108.608 662.484 101.403 658.917 95.6203 653.532C89.7523 648.019 85.6668 641.37 83.3636 633.586C80.9755 625.673 80.7095 617.137 82.5655 607.978C84.3999 598.925 87.9572 591.22 93.2372 584.861C98.4108 578.481 104.709 573.936 112.132 571.227C119.556 568.518 127.634 568.048 136.367 569.818C144.887 571.545 152.092 575.111 157.981 580.518C163.765 585.903 167.85 592.552 170.238 600.465C172.626 608.377 172.903 616.86 171.069 625.912ZM150.62 621.769C151.462 617.615 151.259 613.693 150.011 610.003C148.763 606.313 146.576 603.154 143.45 600.524C140.217 597.874 136.151 596.052 131.252 595.059C126.247 594.045 121.792 594.14 117.889 595.345C113.986 596.55 110.742 598.609 108.156 601.522C105.569 604.435 103.856 607.968 103.014 612.122C102.172 616.275 102.375 620.197 103.623 623.887C104.871 627.577 107.048 630.79 110.152 633.526C113.278 636.155 117.344 637.977 122.35 638.991C127.249 639.984 131.703 639.889 135.713 638.705C139.637 637.394 142.893 635.282 145.479 632.369C148.065 629.456 149.779 625.922 150.62 621.769Z" fill="black" fill-opacity="0.12"/>
<path d="M199.308 528.917C196.547 535.654 192.767 541.151 187.969 545.409C183.212 549.566 177.571 552.011 171.047 552.743C164.422 553.434 156.937 552.069 148.592 548.649L102.74 529.859L112.383 506.33L154.765 523.698C161.502 526.459 167.056 527.091 171.427 525.594C175.739 523.956 178.967 520.522 181.11 515.294C182.593 511.674 183.158 508.147 182.803 504.714C182.348 501.239 180.841 498.038 178.283 495.11C175.624 492.142 171.831 489.648 166.904 487.629L126.784 471.187L136.427 447.658L217.571 480.912L208.423 503.234L186.101 494.087L194.256 492.672C198.774 497.695 201.399 503.468 202.131 509.992C202.804 516.375 201.863 522.683 199.308 528.917Z" fill="black" fill-opacity="0.12"/>
<path d="M249.415 429.867C244.034 438.677 237.617 444.18 230.164 446.377C222.618 448.516 214.393 446.867 205.49 441.43L139.832 401.328L153.086 379.627L218.466 419.559C221.619 421.485 224.587 422.151 227.368 421.558C230.057 420.909 232.279 419.146 234.035 416.271C236.131 412.84 236.988 409.352 236.606 405.808L255.476 409.312C255.693 412.5 255.256 415.926 254.165 419.589C253.037 423.102 251.454 426.528 249.415 429.867ZM167.696 434.199L151.003 424.004L182.694 372.117L199.387 382.312L167.696 434.199Z" fill="black" fill-opacity="0.12"/>
<path d="M321.082 338.325C315.953 343.492 310.357 347.124 304.294 349.221C298.308 351.24 292.161 351.34 285.854 349.518C279.469 347.621 273.076 343.494 266.676 337.14L231.51 302.229L249.425 284.183L281.93 316.453C287.097 321.583 291.986 324.293 296.597 324.583C301.208 324.72 305.504 322.784 309.485 318.773C312.241 315.997 314.113 312.955 315.1 309.648C316.01 306.263 315.843 302.729 314.6 299.046C313.28 295.285 310.731 291.529 306.952 287.778L276.182 257.231L294.097 239.185L356.331 300.969L339.335 318.089L322.215 301.093L330.289 302.907C332.541 309.277 332.756 315.615 330.935 321.923C329.113 328.077 325.829 333.544 321.082 338.325Z" fill="black" fill-opacity="0.12"/>
<path d="M400.418 269.341C394.306 273.685 387.912 277.163 381.237 279.775C374.586 282.236 368.836 283.523 363.984 283.639L360.316 263.848C365.042 263.556 370.091 262.5 375.464 260.681C380.862 258.71 385.731 256.182 390.071 253.097C394.854 249.698 397.811 246.73 398.941 244.193C400.16 241.594 400.045 239.275 398.597 237.238C397.401 235.555 395.722 234.882 393.562 235.218C391.426 235.403 388.917 236.186 386.034 237.569C383.15 238.952 380.001 240.524 376.586 242.284C373.26 243.982 369.795 245.578 366.191 247.073C362.525 248.48 358.872 249.343 355.233 249.663C351.594 249.983 348.065 249.425 344.645 247.99C341.314 246.491 338.2 243.705 335.304 239.631C332.093 235.114 330.544 230.215 330.658 224.935C330.86 219.592 332.748 214.183 336.323 208.709C339.835 203.147 345.045 197.91 351.954 192.999C356.825 189.537 362.163 186.543 367.967 184.017C373.771 181.491 379.08 180.051 383.894 179.696L387.468 199.354C382.565 199.772 378.091 200.886 374.044 202.695C370.023 204.353 366.374 206.347 363.097 208.677C358.491 211.95 355.566 214.963 354.322 217.714C353.078 220.465 353.148 222.814 354.533 224.763C355.792 226.534 357.489 227.328 359.625 227.143C361.849 226.896 364.434 226.125 367.38 224.831C370.326 223.536 373.463 222.04 376.789 220.343C380.141 218.493 383.65 216.866 387.316 215.459C390.983 214.053 394.592 213.221 398.142 212.964C401.718 212.556 405.216 213.069 408.636 214.505C411.993 215.851 415.119 218.562 418.015 222.636C421.163 227.065 422.636 231.951 422.434 237.294C422.169 242.548 420.205 247.944 416.542 253.481C412.967 258.955 407.592 264.242 400.418 269.341Z" fill="black" fill-opacity="0.12"/>
<path d="M534.794 195.454L528.423 179.569L525.515 176.696L514.107 148.255C512.084 143.212 508.943 139.905 504.684 138.335C500.526 136.725 495.269 137.194 488.915 139.743C484.579 141.482 480.575 143.907 476.906 147.018C473.297 149.988 470.495 153.219 468.5 156.712L453.414 143.62C456.598 138.714 460.972 134.149 466.538 129.927C472.103 125.704 478.113 122.298 484.568 119.709C496.973 114.733 507.778 113.795 516.983 116.894C526.187 119.993 533.278 127.745 538.253 140.15L556.882 186.594L534.794 195.454ZM510.469 206.615C504.115 209.164 498.244 210.289 492.856 209.992C487.428 209.593 482.755 208.014 478.838 205.253C474.92 202.492 472.031 198.792 470.17 194.153C468.229 189.312 467.689 184.61 468.553 180.049C469.517 175.447 472.166 171.106 476.501 167.026C480.795 162.845 487.077 159.096 495.348 155.779L516.981 147.102L522.503 160.868L503.441 168.514C497.894 170.739 494.426 173.184 493.036 175.849C491.747 178.473 491.649 181.147 492.741 183.87C493.954 186.896 496.085 188.851 499.133 189.736C502.241 190.48 505.863 190.023 509.998 188.364C513.931 186.786 517.097 184.463 519.496 181.393C521.854 178.223 523.01 174.539 522.966 170.342L530.966 179.778C531.355 185.71 529.826 190.948 526.38 195.492C522.934 200.035 517.63 203.743 510.469 206.615Z" fill="black" fill-opacity="0.12"/>
<path d="M630.534 169.95C622.967 171.453 616.147 171.146 610.076 169.029C604.005 166.911 598.885 162.887 594.716 156.957C590.525 150.921 587.435 142.893 585.444 132.874C583.433 122.749 583.273 114.139 584.966 107.045C586.765 99.9289 590.065 94.2323 594.866 89.9549C599.666 85.6775 605.69 82.8188 612.938 81.3789C621.038 79.7697 628.646 80.1417 635.761 82.495C642.982 84.8272 649.115 88.9268 654.158 94.7939C659.308 100.64 662.783 108.093 664.583 117.152C666.361 126.105 665.989 134.267 663.464 141.637C661.047 148.987 656.958 155.172 651.197 160.195C645.522 165.089 638.634 168.341 630.534 169.95ZM579.44 178.771L555.872 60.1437L580.813 55.1888L590.754 105.23L594.206 130.968L599.767 156.452L603.261 174.039L579.44 178.771ZM622.152 150.343C626.309 149.518 629.795 147.828 632.612 145.274C635.535 142.699 637.606 139.463 638.826 135.564C640.131 131.538 640.296 127.073 639.322 122.171C638.327 117.161 636.467 113.099 633.744 109.984C631.126 106.848 627.975 104.649 624.29 103.387C620.711 102.103 616.844 101.875 612.687 102.701C608.53 103.526 604.99 105.227 602.067 107.802C599.144 110.377 597.073 113.613 595.853 117.512C594.633 121.41 594.521 125.864 595.516 130.873C596.49 135.776 598.297 139.849 600.935 143.092C603.552 146.228 606.704 148.427 610.389 149.689C614.074 150.951 617.995 151.169 622.152 150.343Z" fill="black" fill-opacity="0.12"/>
<path d="M732.178 159.713C722.833 159.785 714.505 157.893 707.194 154.037C699.992 150.181 694.246 144.9 689.956 138.196C685.774 131.382 683.65 123.629 683.582 114.935C683.515 106.134 685.519 98.3484 689.596 91.5794C693.781 84.7009 699.445 79.3323 706.588 75.4737C713.838 71.5056 722.135 69.4855 731.48 69.4134C740.717 69.342 748.99 71.2342 756.301 75.0899C763.611 78.8369 769.356 84.063 773.538 90.7683C777.719 97.4736 779.844 105.281 779.913 114.192C779.98 122.885 777.975 130.67 773.899 137.548C769.822 144.317 764.158 149.685 756.908 153.654C749.657 157.622 741.414 159.641 732.178 159.713ZM732.017 138.849C736.254 138.817 740.05 137.809 743.404 135.827C746.757 133.845 749.398 131.054 751.326 127.453C753.254 123.743 754.198 119.389 754.159 114.391C754.12 109.283 753.108 104.944 751.125 101.374C749.141 97.8029 746.458 95.0525 743.074 93.1226C739.69 91.1926 735.879 90.244 731.642 90.2767C727.404 90.3095 723.608 91.3168 720.255 93.2987C716.901 95.2807 714.206 98.0726 712.169 101.674C710.241 105.275 709.296 109.629 709.336 114.737C709.374 119.735 710.386 124.074 712.37 127.754C714.463 131.324 717.201 134.074 720.584 136.003C723.968 137.933 727.779 138.882 732.017 138.849Z" fill="black" fill-opacity="0.12"/>
<path d="M837.223 167.705C830.066 166.369 823.917 163.783 818.774 159.948C813.738 156.133 810.2 151.106 808.16 144.866C806.139 138.519 805.957 130.913 807.613 122.047L816.711 73.3369L841.707 78.0056L833.297 123.03C831.96 130.187 832.468 135.754 834.821 139.731C837.3 143.621 841.317 146.084 846.872 147.122C850.717 147.84 854.285 147.677 857.575 146.634C860.885 145.483 863.714 143.359 866.062 140.26C868.429 137.054 870.102 132.834 871.079 127.6L879.04 84.9786L904.036 89.6473L887.935 175.851L864.221 171.421L868.65 147.707L871.69 155.405C867.688 160.848 862.567 164.59 856.327 166.631C850.214 168.584 843.846 168.942 837.223 167.705Z" fill="black" fill-opacity="0.12"/>
<path d="M943.801 196.439C934.082 192.958 927.391 187.792 923.728 180.939C920.101 173.984 920.047 165.596 923.565 155.775L949.508 83.3451L973.446 91.9195L947.613 164.043C946.368 167.521 946.317 170.562 947.462 173.165C948.644 175.666 950.821 177.484 953.992 178.62C957.777 179.976 961.366 180.107 964.759 179.014L965.158 198.202C962.08 199.062 958.637 199.329 954.829 199.004C951.16 198.614 947.484 197.759 943.801 196.439ZM922.975 117.3L929.571 98.8855L986.809 119.387L980.213 137.801L922.975 117.3Z" fill="black" fill-opacity="0.12"/>
<path d="M1046.93 247.364C1040.83 243.388 1036.14 238.644 1032.85 233.133C1029.66 227.68 1028.32 221.681 1028.83 215.135C1029.39 208.499 1032.13 201.402 1037.06 193.846L1064.12 152.335L1085.42 166.22L1060.41 204.591C1056.43 210.69 1054.77 216.027 1055.42 220.602C1056.22 225.145 1058.99 228.959 1063.72 232.045C1067 234.181 1070.36 235.397 1073.8 235.693C1077.29 235.898 1080.72 235.019 1084.08 233.055C1087.49 231 1090.65 227.743 1093.56 223.282L1117.24 186.959L1138.54 200.845L1090.65 274.31L1070.44 261.136L1083.62 240.927L1083.48 249.202C1077.69 252.697 1071.53 254.193 1064.99 253.688C1058.59 253.151 1052.57 251.043 1046.93 247.364Z" fill="black" fill-opacity="0.12"/>
<path d="M1131 311.316C1125.51 306.21 1120.81 300.653 1116.9 294.644C1113.15 288.629 1110.72 283.258 1109.63 278.53L1128.26 270.933C1129.51 275.501 1131.56 280.232 1134.43 285.125C1137.45 290.013 1140.92 294.27 1144.81 297.896C1149.11 301.892 1152.62 304.187 1155.33 304.78C1158.12 305.447 1160.37 304.866 1162.07 303.036C1163.48 301.524 1163.8 299.744 1163.03 297.695C1162.42 295.642 1161.14 293.343 1159.2 290.799C1157.27 288.255 1155.09 285.489 1152.67 282.502C1150.34 279.588 1148.07 276.518 1145.88 273.291C1143.76 269.985 1142.18 266.583 1141.13 263.084C1140.08 259.585 1139.91 256.016 1140.62 252.376C1141.42 248.81 1143.51 245.197 1146.92 241.536C1150.69 237.478 1155.18 234.97 1160.37 234.012C1165.64 233.128 1171.32 233.883 1177.41 236.276C1183.56 238.59 1189.75 242.632 1195.95 248.404C1200.33 252.474 1204.34 257.095 1207.99 262.268C1211.64 267.441 1214.12 272.348 1215.45 276.99L1196.92 284.469C1195.52 279.752 1193.52 275.596 1190.93 272C1188.49 268.397 1185.8 265.227 1182.86 262.49C1178.72 258.642 1175.18 256.387 1172.23 255.725C1169.29 255.063 1167 255.608 1165.37 257.359C1163.89 258.95 1163.46 260.773 1164.07 262.827C1164.76 264.954 1166.04 267.33 1167.9 269.953C1169.77 272.577 1171.87 275.345 1174.2 278.259C1176.69 281.167 1179 284.274 1181.12 287.58C1183.24 290.887 1184.78 294.252 1185.75 297.677C1186.87 301.096 1187.08 304.625 1186.37 308.265C1185.73 311.825 1183.71 315.436 1180.3 319.096C1176.6 323.075 1172.11 325.507 1166.84 326.39C1161.64 327.195 1155.96 326.363 1149.8 323.896C1143.71 321.503 1137.45 317.31 1131 311.316Z" fill="black" fill-opacity="0.12"/>
<path d="M1253.32 466.488L1268.25 458.111L1270.72 454.855L1297.44 439.856C1302.18 437.196 1305.05 433.653 1306.05 429.226C1307.11 424.894 1305.96 419.743 1302.61 413.773C1300.33 409.699 1297.4 406.044 1293.84 402.808C1290.43 399.615 1286.86 397.255 1283.14 395.731L1294.17 379.075C1299.44 381.595 1304.54 385.341 1309.45 390.312C1314.35 395.283 1318.51 400.8 1321.91 406.865C1328.46 418.521 1330.79 429.113 1328.91 438.641C1327.03 448.17 1320.26 456.205 1308.61 462.747L1264.97 487.241L1253.32 466.488ZM1239.1 443.816C1235.75 437.846 1233.87 432.17 1233.47 426.789C1233.16 421.355 1234.12 416.516 1236.35 412.274C1238.58 408.032 1241.87 404.688 1246.23 402.241C1250.78 399.688 1255.37 398.544 1260.01 398.808C1264.69 399.168 1269.34 401.232 1273.95 405.001C1278.65 408.717 1283.19 414.46 1287.55 422.23L1298.96 442.556L1286.02 449.816L1275.97 431.907C1273.04 426.695 1270.17 423.573 1267.35 422.54C1264.58 421.602 1261.91 421.852 1259.35 423.288C1256.51 424.883 1254.85 427.25 1254.37 430.386C1254.03 433.565 1254.96 437.097 1257.14 440.982C1259.21 444.678 1261.92 447.515 1265.28 449.496C1268.73 451.423 1272.53 452.092 1276.69 451.504L1268.37 460.66C1262.54 461.814 1257.14 460.978 1252.19 458.15C1247.24 455.322 1242.88 450.544 1239.1 443.816Z" fill="black" fill-opacity="0.12"/>
<path d="M1291.36 559.311C1288.89 552 1288.32 545.198 1289.64 538.905C1290.96 532.612 1294.29 527.017 1299.64 522.119C1305.08 517.187 1312.65 513.089 1322.33 509.826C1332.11 506.529 1340.63 505.263 1347.88 506.029C1355.17 506.898 1361.24 509.437 1366.1 513.648C1370.96 517.858 1374.57 523.464 1376.93 530.466C1379.57 538.292 1380.18 545.885 1378.76 553.243C1377.38 560.705 1374.1 567.314 1368.93 573.07C1363.8 578.929 1356.85 583.334 1348.1 586.284C1339.45 589.2 1331.31 589.88 1323.67 588.325C1316.07 586.873 1309.41 583.614 1303.69 578.548C1298.11 573.549 1294 567.137 1291.36 559.311ZM1276.04 509.776L1390.65 471.143L1398.77 495.239L1350.42 511.536L1325.34 518.27L1300.79 527.064L1283.8 532.791L1276.04 509.776ZM1309.72 548.476C1311.08 552.492 1313.2 555.733 1316.1 558.197C1319.03 560.764 1322.5 562.402 1326.53 563.11C1330.69 563.886 1335.14 563.476 1339.87 561.879C1344.71 560.248 1348.5 557.881 1351.24 554.779C1354.01 551.78 1355.79 548.372 1356.57 544.555C1357.38 540.841 1357.11 536.976 1355.75 532.96C1354.4 528.944 1352.26 525.653 1349.33 523.085C1346.4 520.518 1342.92 518.88 1338.9 518.172C1334.88 517.464 1330.45 517.926 1325.61 519.557C1320.87 521.154 1317.06 523.469 1314.19 526.503C1311.41 529.502 1309.64 532.91 1308.86 536.727C1308.08 540.544 1308.37 544.46 1309.72 548.476Z" fill="black" fill-opacity="0.12"/>
<path d="M1314.33 658.814C1313.08 649.553 1313.9 641.053 1316.8 633.312C1319.71 625.68 1324.22 619.311 1330.32 614.205C1336.55 609.193 1343.97 606.103 1352.59 604.934C1361.31 603.751 1369.29 604.752 1376.52 607.939C1383.87 611.218 1389.92 616.155 1394.65 622.751C1399.5 629.439 1402.56 637.414 1403.82 646.675C1405.06 655.827 1404.23 664.274 1401.33 672.015C1398.54 679.74 1394.09 686.102 1387.96 691.1C1381.84 696.097 1374.37 699.195 1365.54 700.393C1356.92 701.561 1348.95 700.56 1341.61 697.388C1334.38 694.202 1328.33 689.265 1323.48 682.576C1318.62 675.888 1315.57 667.967 1314.33 658.814ZM1335.01 656.009C1335.58 660.209 1337.06 663.846 1339.45 666.921C1341.84 669.996 1344.94 672.262 1348.76 673.718C1352.68 675.16 1357.12 675.545 1362.08 674.873C1367.14 674.186 1371.31 672.633 1374.6 670.212C1377.89 667.792 1380.28 664.781 1381.77 661.18C1383.25 657.579 1383.71 653.679 1383.14 649.479C1382.57 645.28 1381.09 641.642 1378.7 638.567C1376.31 635.492 1373.2 633.173 1369.37 631.609C1365.55 630.153 1361.11 629.768 1356.05 630.454C1351.1 631.126 1346.92 632.68 1343.52 635.115C1340.25 637.643 1337.87 640.707 1336.38 644.308C1334.9 647.909 1334.44 651.81 1335.01 656.009Z" fill="black" fill-opacity="0.12"/>
</svg>
