<svg width="23" height="24" viewBox="0 0 23 24" fill="none" xmlns="http://www.w3.org/2000/svg">
<path fill-rule="evenodd" clip-rule="evenodd" d="M11.4963 23.4965C13.006 23.4965 14.501 23.1992 15.8958 22.6214C17.2906 22.0437 18.5579 21.1969 19.6254 20.1293C20.693 19.0618 21.5398 17.7945 22.1175 16.3997C22.6953 15.0049 22.9926 13.5099 22.9926 12.0002C22.9926 10.4905 22.6953 8.99556 22.1175 7.60077C21.5398 6.20597 20.693 4.93863 19.6254 3.8711C18.5579 2.80357 17.2906 1.95675 15.8958 1.37901C14.501 0.801267 13.006 0.503906 11.4963 0.503906C8.4473 0.503906 5.52317 1.71512 3.36719 3.8711C1.21121 6.02707 0 8.9512 0 12.0002C0 15.0492 1.21121 17.9734 3.36719 20.1293C5.52317 22.2853 8.4473 23.4965 11.4963 23.4965ZM11.2 16.6498L17.5868 8.98563L15.6248 7.3506L10.1321 13.9405L7.28994 11.0971L5.48374 12.9033L9.31584 16.7354L10.3045 17.7241L11.2 16.6498Z" fill="url(#paint0_linear_154_1008)"/>
<defs>
<linearGradient id="paint0_linear_154_1008" x1="0.684707" y1="0.503904" x2="19.7281" y2="6.3945" gradientUnits="userSpaceOnUse">
<stop offset="0.145" stop-color="#FF6749"/>
<stop offset="1" stop-color="#FF8763"/>
</linearGradient>
</defs>
</svg>
